<?xml version="1.0" encoding="utf-8"?>
<!-- Generator: Adobe Illustrator 21.0.2, SVG Export Plug-In . SVG Version: 6.00 Build 0)  -->
<svg version="1.1" id="Layer_1" xmlns="http://www.w3.org/2000/svg" xmlns:xlink="http://www.w3.org/1999/xlink" x="0px" y="0px"
	 viewBox="0 0 182.4 132.9" style="enable-background:new 0 0 182.4 132.9;" xml:space="preserve">
<g>
	<g>
		<g>
			<path d="M92.6,0H110v46.7h0.9c3.3-3.6,7.6-6.4,12.7-8.4c5.1-2,10.7-3,16.8-3c14,0,24.5,3.9,31.5,11.6c7,7.7,10.5,19.7,10.5,36
				c0,16.4-4.6,28.8-13.9,37.3c-9.3,8.5-22.3,12.7-39,12.7c-8.1,0-15.4-0.8-22-2.2c-6.6-1.5-11.5-3.1-14.9-4.9V0z M137.3,48.4
				c-7.2,0-13.1,1.8-17.6,5.2c-4.5,3.5-7.7,8.4-9.8,14.8v47.2c2.7,1.4,6.1,2.4,10,3.1c3.9,0.7,7.9,1,12.1,1c9.8,0,17.7-3,23.5-9
				s8.8-15.4,8.8-28.1c0-4.9-0.5-9.4-1.5-13.7c-1-4.2-2.6-7.9-4.8-10.9s-5-5.4-8.3-7.1C146.4,49.2,142.2,48.4,137.3,48.4z"/>
		</g>
	</g>
</g>
<g>
	<g>
		<g>
			<path d="M71.8,124.4"/>
			<path d="M70.8,127.5c7.7-0.7,14.9,0.1,18.2-1.7V26H71.7v20.7h-0.9c-3.3-3.6-7.6-6.4-12.7-8.4c-5.1-2-10.7-3-16.8-3
				c-14,0-24.5,3.9-31.5,11.6C4.6,52.6,1.3,60.7,0,71.2c2.7,0.2,7.5-0.3,10.2-0.1c4.9-0.5,8.1,0.1,8.7-2.1c1-4.2,2.6-7.9,4.8-10.9
				s5-5.4,8.3-7.1c3.4-1.7,7.6-2.6,12.5-2.6c7.2,0,13.1,1.8,17.6,5.2c4.5,3.5,7.7,8.4,9.8,14.8"/>
		</g>
	</g>
</g>
</svg>
